<svg class="rich-terminal" viewBox="0 0 1482 977.1999999999999" xmlns="http://www.w3.org/2000/svg">
    <!-- Generated with Rich https://www.textualize.io -->
    <style>

    @font-face {
        font-family: "Fira Code";
        src: local("FiraCode-Regular"),
                url("https://cdnjs.cloudflare.com/ajax/libs/firacode/6.2.0/woff2/FiraCode-Regular.woff2") format("woff2"),
                url("https://cdnjs.cloudflare.com/ajax/libs/firacode/6.2.0/woff/FiraCode-Regular.woff") format("woff");
        font-style: normal;
        font-weight: 400;
    }
    @font-face {
        font-family: "Fira Code";
        src: local("FiraCode-Bold"),
                url("https://cdnjs.cloudflare.com/ajax/libs/firacode/6.2.0/woff2/FiraCode-Bold.woff2") format("woff2"),
                url("https://cdnjs.cloudflare.com/ajax/libs/firacode/6.2.0/woff/FiraCode-Bold.woff") format("woff");
        font-style: bold;
        font-weight: 700;
    }

    .terminal-1947340652-matrix {
        font-family: Fira Code, monospace;
        font-size: 20px;
        line-height: 24.4px;
        font-variant-east-asian: full-width;
    }

    .terminal-1947340652-title {
        font-size: 18px;
        font-weight: bold;
        font-family: arial;
    }

    .terminal-1947340652-r1 { fill: #c5c8c6 }
.terminal-1947340652-r2 { fill: #e0e0e0 }
.terminal-1947340652-r3 { fill: #a0a3a6 }
.terminal-1947340652-r4 { fill: #c5c6c7 }
.terminal-1947340652-r5 { fill: #008000;font-weight: bold }
.terminal-1947340652-r6 { fill: #e0e0e0;font-weight: bold }
.terminal-1947340652-r7 { fill: #ff0000 }
.terminal-1947340652-r8 { fill: #3e3e3e }
.terminal-1947340652-r9 { fill: #999999 }
.terminal-1947340652-r10 { fill: #008000 }
.terminal-1947340652-r11 { fill: #0178d4 }
.terminal-1947340652-r12 { fill: #989898 }
.terminal-1947340652-r13 { fill: #f4005f;font-weight: bold }
.terminal-1947340652-r14 { fill: #fd971f;font-weight: bold }
.terminal-1947340652-r15 { fill: #ffa62b;font-weight: bold }
.terminal-1947340652-r16 { fill: #495259 }
    </style>

    <defs>
    <clipPath id="terminal-1947340652-clip-terminal">
      <rect x="0" y="0" width="1463.0" height="926.1999999999999" />
    </clipPath>
    <clipPath id="terminal-1947340652-line-0">
    <rect x="0" y="1.5" width="1464" height="24.65"/>
            </clipPath>
<clipPath id="terminal-1947340652-line-1">
    <rect x="0" y="25.9" width="1464" height="24.65"/>
            </clipPath>
<clipPath id="terminal-1947340652-line-2">
    <rect x="0" y="50.3" width="1464" height="24.65"/>
            </clipPath>
<clipPath id="terminal-1947340652-line-3">
    <rect x="0" y="74.7" width="1464" height="24.65"/>
            </clipPath>
<clipPath id="terminal-1947340652-line-4">
    <rect x="0" y="99.1" width="1464" height="24.65"/>
            </clipPath>
<clipPath id="terminal-1947340652-line-5">
    <rect x="0" y="123.5" width="1464" height="24.65"/>
            </clipPath>
<clipPath id="terminal-1947340652-line-6">
    <rect x="0" y="147.9" width="1464" height="24.65"/>
            </clipPath>
<clipPath id="terminal-1947340652-line-7">
    <rect x="0" y="172.3" width="1464" height="24.65"/>
            </clipPath>
<clipPath id="terminal-1947340652-line-8">
    <rect x="0" y="196.7" width="1464" height="24.65"/>
            </clipPath>
<clipPath id="terminal-1947340652-line-9">
    <rect x="0" y="221.1" width="1464" height="24.65"/>
            </clipPath>
<clipPath id="terminal-1947340652-line-10">
    <rect x="0" y="245.5" width="1464" height="24.65"/>
            </clipPath>
<clipPath id="terminal-1947340652-line-11">
    <rect x="0" y="269.9" width="1464" height="24.65"/>
            </clipPath>
<clipPath id="terminal-1947340652-line-12">
    <rect x="0" y="294.3" width="1464" height="24.65"/>
            </clipPath>
<clipPath id="terminal-1947340652-line-13">
    <rect x="0" y="318.7" width="1464" height="24.65"/>
            </clipPath>
<clipPath id="terminal-1947340652-line-14">
    <rect x="0" y="343.1" width="1464" height="24.65"/>
            </clipPath>
<clipPath id="terminal-1947340652-line-15">
    <rect x="0" y="367.5" width="1464" height="24.65"/>
            </clipPath>
<clipPath id="terminal-1947340652-line-16">
    <rect x="0" y="391.9" width="1464" height="24.65"/>
            </clipPath>
<clipPath id="terminal-1947340652-line-17">
    <rect x="0" y="416.3" width="1464" height="24.65"/>
            </clipPath>
<clipPath id="terminal-1947340652-line-18">
    <rect x="0" y="440.7" width="1464" height="24.65"/>
            </clipPath>
<clipPath id="terminal-1947340652-line-19">
    <rect x="0" y="465.1" width="1464" height="24.65"/>
            </clipPath>
<clipPath id="terminal-1947340652-line-20">
    <rect x="0" y="489.5" width="1464" height="24.65"/>
            </clipPath>
<clipPath id="terminal-1947340652-line-21">
    <rect x="0" y="513.9" width="1464" height="24.65"/>
            </clipPath>
<clipPath id="terminal-1947340652-line-22">
    <rect x="0" y="538.3" width="1464" height="24.65"/>
            </clipPath>
<clipPath id="terminal-1947340652-line-23">
    <rect x="0" y="562.7" width="1464" height="24.65"/>
            </clipPath>
<clipPath id="terminal-1947340652-line-24">
    <rect x="0" y="587.1" width="1464" height="24.65"/>
            </clipPath>
<clipPath id="terminal-1947340652-line-25">
    <rect x="0" y="611.5" width="1464" height="24.65"/>
            </clipPath>
<clipPath id="terminal-1947340652-line-26">
    <rect x="0" y="635.9" width="1464" height="24.65"/>
            </clipPath>
<clipPath id="terminal-1947340652-line-27">
    <rect x="0" y="660.3" width="1464" height="24.65"/>
            </clipPath>
<clipPath id="terminal-1947340652-line-28">
    <rect x="0" y="684.7" width="1464" height="24.65"/>
            </clipPath>
<clipPath id="terminal-1947340652-line-29">
    <rect x="0" y="709.1" width="1464" height="24.65"/>
            </clipPath>
<clipPath id="terminal-1947340652-line-30">
    <rect x="0" y="733.5" width="1464" height="24.65"/>
            </clipPath>
<clipPath id="terminal-1947340652-line-31">
    <rect x="0" y="757.9" width="1464" height="24.65"/>
            </clipPath>
<clipPath id="terminal-1947340652-line-32">
    <rect x="0" y="782.3" width="1464" height="24.65"/>
            </clipPath>
<clipPath id="terminal-1947340652-line-33">
    <rect x="0" y="806.7" width="1464" height="24.65"/>
            </clipPath>
<clipPath id="terminal-1947340652-line-34">
    <rect x="0" y="831.1" width="1464" height="24.65"/>
            </clipPath>
<clipPath id="terminal-1947340652-line-35">
    <rect x="0" y="855.5" width="1464" height="24.65"/>
            </clipPath>
<clipPath id="terminal-1947340652-line-36">
    <rect x="0" y="879.9" width="1464" height="24.65"/>
            </clipPath>
    </defs>

    <rect fill="#292929" stroke="rgba(255,255,255,0.35)" stroke-width="1" x="1" y="1" width="1480" height="975.2" rx="8"/><text class="terminal-1947340652-title" fill="#c5c8c6" text-anchor="middle" x="740" y="27">theta&#160;top</text>
            <g transform="translate(26,22)">
            <circle cx="0" cy="0" r="7" fill="#ff5f57"/>
            <circle cx="22" cy="0" r="7" fill="#febc2e"/>
            <circle cx="44" cy="0" r="7" fill="#28c840"/>
            </g>
        
    <g transform="translate(9, 41)" clip-path="url(#terminal-1947340652-clip-terminal)">
    <rect fill="#242f38" x="0" y="1.5" width="12.2" height="24.65" shape-rendering="crispEdges"/><rect fill="#242f38" x="12.2" y="1.5" width="12.2" height="24.65" shape-rendering="crispEdges"/><rect fill="#242f38" x="24.4" y="1.5" width="61" height="24.65" shape-rendering="crispEdges"/><rect fill="#242f38" x="85.4" y="1.5" width="12.2" height="24.65" shape-rendering="crispEdges"/><rect fill="#242f38" x="97.6" y="1.5" width="341.6" height="24.65" shape-rendering="crispEdges"/><rect fill="#242f38" x="439.2" y="1.5" width="109.8" height="24.65" shape-rendering="crispEdges"/><rect fill="#242f38" x="549" y="1.5" width="36.6" height="24.65" shape-rendering="crispEdges"/><rect fill="#242f38" x="585.6" y="1.5" width="414.8" height="24.65" shape-rendering="crispEdges"/><rect fill="#242f38" x="1000.4" y="1.5" width="341.6" height="24.65" shape-rendering="crispEdges"/><rect fill="#2c363f" x="1342" y="1.5" width="12.2" height="24.65" shape-rendering="crispEdges"/><rect fill="#2c363f" x="1354.2" y="1.5" width="97.6" height="24.65" shape-rendering="crispEdges"/><rect fill="#2c363f" x="1451.8" y="1.5" width="12.2" height="24.65" shape-rendering="crispEdges"/><rect fill="#1e1e1e" x="0" y="25.9" width="24.4" height="24.65" shape-rendering="crispEdges"/><rect fill="#1e1e1e" x="24.4" y="25.9" width="48.8" height="24.65" shape-rendering="crispEdges"/><rect fill="#1e1e1e" x="73.2" y="25.9" width="109.8" height="24.65" shape-rendering="crispEdges"/><rect fill="#1e1e1e" x="183" y="25.9" width="48.8" height="24.65" shape-rendering="crispEdges"/><rect fill="#1e1e1e" x="231.8" y="25.9" width="378.2" height="24.65" shape-rendering="crispEdges"/><rect fill="#1e1e1e" x="610" y="25.9" width="73.2" height="24.65" shape-rendering="crispEdges"/><rect fill="#1e1e1e" x="683.2" y="25.9" width="158.6" height="24.65" shape-rendering="crispEdges"/><rect fill="#1e1e1e" x="841.8" y="25.9" width="597.8" height="24.65" shape-rendering="crispEdges"/><rect fill="#1e1e1e" x="1439.6" y="25.9" width="24.4" height="24.65" shape-rendering="crispEdges"/><rect fill="#121212" x="0" y="50.3" width="12.2" height="24.65" shape-rendering="crispEdges"/><rect fill="#121212" x="12.2" y="50.3" width="12.2" height="24.65" shape-rendering="crispEdges"/><rect fill="#121212" x="24.4" y="50.3" width="1415.2" height="24.65" shape-rendering="crispEdges"/><rect fill="#121212" x="1439.6" y="50.3" width="12.2" height="24.65" shape-rendering="crispEdges"/><rect fill="#121212" x="1451.8" y="50.3" width="12.2" height="24.65" shape-rendering="crispEdges"/><rect fill="#121212" x="0" y="74.7" width="12.2" height="24.65" shape-rendering="crispEdges"/><rect fill="#121212" x="12.2" y="74.7" width="12.2" height="24.65" shape-rendering="crispEdges"/><rect fill="#121212" x="24.4" y="74.7" width="12.2" height="24.65" shape-rendering="crispEdges"/><rect fill="#121212" x="36.6" y="74.7" width="61" height="24.65" shape-rendering="crispEdges"/><rect fill="#121212" x="97.6" y="74.7" width="12.2" height="24.65" shape-rendering="crispEdges"/><rect fill="#121212" x="109.8" y="74.7" width="292.8" height="24.65" shape-rendering="crispEdges"/><rect fill="#121212" x="402.6" y="74.7" width="12.2" height="24.65" shape-rendering="crispEdges"/><rect fill="#121212" x="414.8" y="74.7" width="61" height="24.65" shape-rendering="crispEdges"/><rect fill="#121212" x="475.8" y="74.7" width="317.2" height="24.65" shape-rendering="crispEdges"/><rect fill="#121212" x="793" y="74.7" width="634.4" height="24.65" shape-rendering="crispEdges"/><rect fill="#121212" x="1427.4" y="74.7" width="12.2" height="24.65" shape-rendering="crispEdges"/><rect fill="#121212" x="1439.6" y="74.7" width="12.2" height="24.65" shape-rendering="crispEdges"/><rect fill="#121212" x="1451.8" y="74.7" width="12.2" height="24.65" shape-rendering="crispEdges"/><rect fill="#121212" x="0" y="99.1" width="12.2" height="24.65" shape-rendering="crispEdges"/><rect fill="#121212" x="12.2" y="99.1" width="12.2" height="24.65" shape-rendering="crispEdges"/><rect fill="#121212" x="24.4" y="99.1" width="12.2" height="24.65" shape-rendering="crispEdges"/><rect fill="#121212" x="36.6" y="99.1" width="85.4" height="24.65" shape-rendering="crispEdges"/><rect fill="#121212" x="122" y="99.1" width="280.6" height="24.65" shape-rendering="crispEdges"/><rect fill="#121212" x="402.6" y="99.1" width="390.4" height="24.65" shape-rendering="crispEdges"/><rect fill="#121212" x="793" y="99.1" width="12.2" height="24.65" shape-rendering="crispEdges"/><rect fill="#121212" x="805.2" y="99.1" width="622.2" height="24.65" shape-rendering="crispEdges"/><rect fill="#121212" x="1427.4" y="99.1" width="12.2" height="24.65" shape-rendering="crispEdges"/><rect fill="#121212" x="1439.6" y="99.1" width="12.2" height="24.65" shape-rendering="crispEdges"/><rect fill="#121212" x="1451.8" y="99.1" width="12.2" height="24.65" shape-rendering="crispEdges"/><rect fill="#121212" x="0" y="123.5" width="12.2" height="24.65" shape-rendering="crispEdges"/><rect fill="#121212" x="12.2" y="123.5" width="12.2" height="24.65" shape-rendering="crispEdges"/><rect fill="#121212" x="24.4" y="123.5" width="12.2" height="24.65" shape-rendering="crispEdges"/><rect fill="#121212" x="36.6" y="123.5" width="48.8" height="24.65" shape-rendering="crispEdges"/><rect fill="#121212" x="85.4" y="123.5" width="73.2" height="24.65" shape-rendering="crispEdges"/><rect fill="#121212" x="158.6" y="123.5" width="219.6" height="24.65" shape-rendering="crispEdges"/><rect fill="#121212" x="378.2" y="123.5" width="414.8" height="24.65" shape-rendering="crispEdges"/><rect fill="#121212" x="793" y="123.5" width="12.2" height="24.65" shape-rendering="crispEdges"/><rect fill="#121212" x="805.2" y="123.5" width="622.2" height="24.65" shape-rendering="crispEdges"/><rect fill="#121212" x="1427.4" y="123.5" width="12.2" height="24.65" shape-rendering="crispEdges"/><rect fill="#121212" x="1439.6" y="123.5" width="12.2" height="24.65" shape-rendering="crispEdges"/><rect fill="#121212" x="1451.8" y="123.5" width="12.2" height="24.65" shape-rendering="crispEdges"/><rect fill="#121212" x="0" y="147.9" width="12.2" height="24.65" shape-rendering="crispEdges"/><rect fill="#121212" x="12.2" y="147.9" width="12.2" height="24.65" shape-rendering="crispEdges"/><rect fill="#121212" x="24.4" y="147.9" width="1415.2" height="24.65" shape-rendering="crispEdges"/><rect fill="#121212" x="1439.6" y="147.9" width="12.2" height="24.65" shape-rendering="crispEdges"/><rect fill="#121212" x="1451.8" y="147.9" width="12.2" height="24.65" shape-rendering="crispEdges"/><rect fill="#121212" x="0" y="172.3" width="12.2" height="24.65" shape-rendering="crispEdges"/><rect fill="#121212" x="12.2" y="172.3" width="12.2" height="24.65" shape-rendering="crispEdges"/><rect fill="#121212" x="24.4" y="172.3" width="1415.2" height="24.65" shape-rendering="crispEdges"/><rect fill="#121212" x="1439.6" y="172.3" width="12.2" height="24.65" shape-rendering="crispEdges"/><rect fill="#121212" x="1451.8" y="172.3" width="12.2" height="24.65" shape-rendering="crispEdges"/><rect fill="#121212" x="0" y="196.7" width="12.2" height="24.65" shape-rendering="crispEdges"/><rect fill="#121212" x="12.2" y="196.7" width="12.2" height="24.65" shape-rendering="crispEdges"/><rect fill="#121212" x="24.4" y="196.7" width="12.2" height="24.65" shape-rendering="crispEdges"/><rect fill="#121212" x="36.6" y="196.7" width="61" height="24.65" shape-rendering="crispEdges"/><rect fill="#121212" x="97.6" y="196.7" width="12.2" height="24.65" shape-rendering="crispEdges"/><rect fill="#121212" x="109.8" y="196.7" width="292.8" height="24.65" shape-rendering="crispEdges"/><rect fill="#121212" x="402.6" y="196.7" width="12.2" height="24.65" shape-rendering="crispEdges"/><rect fill="#121212" x="414.8" y="196.7" width="61" height="24.65" shape-rendering="crispEdges"/><rect fill="#121212" x="475.8" y="196.7" width="317.2" height="24.65" shape-rendering="crispEdges"/><rect fill="#121212" x="793" y="196.7" width="634.4" height="24.65" shape-rendering="crispEdges"/><rect fill="#121212" x="1427.4" y="196.7" width="12.2" height="24.65" shape-rendering="crispEdges"/><rect fill="#121212" x="1439.6" y="196.7" width="12.2" height="24.65" shape-rendering="crispEdges"/><rect fill="#121212" x="1451.8" y="196.7" width="12.2" height="24.65" shape-rendering="crispEdges"/><rect fill="#121212" x="0" y="221.1" width="12.2" height="24.65" shape-rendering="crispEdges"/><rect fill="#121212" x="12.2" y="221.1" width="12.2" height="24.65" shape-rendering="crispEdges"/><rect fill="#121212" x="24.4" y="221.1" width="12.2" height="24.65" shape-rendering="crispEdges"/><rect fill="#121212" x="36.6" y="221.1" width="85.4" height="24.65" shape-rendering="crispEdges"/><rect fill="#121212" x="122" y="221.1" width="280.6" height="24.65" shape-rendering="crispEdges"/><rect fill="#121212" x="402.6" y="221.1" width="390.4" height="24.65" shape-rendering="crispEdges"/><rect fill="#121212" x="793" y="221.1" width="12.2" height="24.65" shape-rendering="crispEdges"/><rect fill="#121212" x="805.2" y="221.1" width="622.2" height="24.65" shape-rendering="crispEdges"/><rect fill="#121212" x="1427.4" y="221.1" width="12.2" height="24.65" shape-rendering="crispEdges"/><rect fill="#121212" x="1439.6" y="221.1" width="12.2" height="24.65" shape-rendering="crispEdges"/><rect fill="#121212" x="1451.8" y="221.1" width="12.2" height="24.65" shape-rendering="crispEdges"/><rect fill="#121212" x="0" y="245.5" width="12.2" height="24.65" shape-rendering="crispEdges"/><rect fill="#121212" x="12.2" y="245.5" width="12.2" height="24.65" shape-rendering="crispEdges"/><rect fill="#121212" x="24.4" y="245.5" width="12.2" height="24.65" shape-rendering="crispEdges"/><rect fill="#121212" x="36.6" y="245.5" width="48.8" height="24.65" shape-rendering="crispEdges"/><rect fill="#121212" x="85.4" y="245.5" width="73.2" height="24.65" shape-rendering="crispEdges"/><rect fill="#121212" x="158.6" y="245.5" width="219.6" height="24.65" shape-rendering="crispEdges"/><rect fill="#121212" x="378.2" y="245.5" width="414.8" height="24.65" shape-rendering="crispEdges"/><rect fill="#121212" x="793" y="245.5" width="12.2" height="24.65" shape-rendering="crispEdges"/><rect fill="#121212" x="805.2" y="245.5" width="622.2" height="24.65" shape-rendering="crispEdges"/><rect fill="#121212" x="1427.4" y="245.5" width="12.2" height="24.65" shape-rendering="crispEdges"/><rect fill="#121212" x="1439.6" y="245.5" width="12.2" height="24.65" shape-rendering="crispEdges"/><rect fill="#121212" x="1451.8" y="245.5" width="12.2" height="24.65" shape-rendering="crispEdges"/><rect fill="#121212" x="0" y="269.9" width="12.2" height="24.65" shape-rendering="crispEdges"/><rect fill="#121212" x="12.2" y="269.9" width="12.2" height="24.65" shape-rendering="crispEdges"/><rect fill="#121212" x="24.4" y="269.9" width="1415.2" height="24.65" shape-rendering="crispEdges"/><rect fill="#121212" x="1439.6" y="269.9" width="12.2" height="24.65" shape-rendering="crispEdges"/><rect fill="#121212" x="1451.8" y="269.9" width="12.2" height="24.65" shape-rendering="crispEdges"/><rect fill="#121212" x="0" y="294.3" width="12.2" height="24.65" shape-rendering="crispEdges"/><rect fill="#121212" x="12.2" y="294.3" width="12.2" height="24.65" shape-rendering="crispEdges"/><rect fill="#121212" x="24.4" y="294.3" width="1415.2" height="24.65" shape-rendering="crispEdges"/><rect fill="#121212" x="1439.6" y="294.3" width="12.2" height="24.65" shape-rendering="crispEdges"/><rect fill="#121212" x="1451.8" y="294.3" width="12.2" height="24.65" shape-rendering="crispEdges"/><rect fill="#121212" x="0" y="318.7" width="12.2" height="24.65" shape-rendering="crispEdges"/><rect fill="#121212" x="12.2" y="318.7" width="12.2" height="24.65" shape-rendering="crispEdges"/><rect fill="#121212" x="24.4" y="318.7" width="12.2" height="24.65" shape-rendering="crispEdges"/><rect fill="#121212" x="36.6" y="318.7" width="61" height="24.65" shape-rendering="crispEdges"/><rect fill="#121212" x="97.6" y="318.7" width="12.2" height="24.65" shape-rendering="crispEdges"/><rect fill="#121212" x="109.8" y="318.7" width="292.8" height="24.65" shape-rendering="crispEdges"/><rect fill="#121212" x="402.6" y="318.7" width="12.2" height="24.65" shape-rendering="crispEdges"/><rect fill="#121212" x="414.8" y="318.7" width="61" height="24.65" shape-rendering="crispEdges"/><rect fill="#121212" x="475.8" y="318.7" width="317.2" height="24.65" shape-rendering="crispEdges"/><rect fill="#121212" x="793" y="318.7" width="634.4" height="24.65" shape-rendering="crispEdges"/><rect fill="#121212" x="1427.4" y="318.7" width="12.2" height="24.65" shape-rendering="crispEdges"/><rect fill="#121212" x="1439.6" y="318.7" width="12.2" height="24.65" shape-rendering="crispEdges"/><rect fill="#121212" x="1451.8" y="318.7" width="12.2" height="24.65" shape-rendering="crispEdges"/><rect fill="#121212" x="0" y="343.1" width="12.2" height="24.65" shape-rendering="crispEdges"/><rect fill="#121212" x="12.2" y="343.1" width="12.2" height="24.65" shape-rendering="crispEdges"/><rect fill="#121212" x="24.4" y="343.1" width="12.2" height="24.65" shape-rendering="crispEdges"/><rect fill="#121212" x="36.6" y="343.1" width="85.4" height="24.65" shape-rendering="crispEdges"/><rect fill="#121212" x="122" y="343.1" width="280.6" height="24.65" shape-rendering="crispEdges"/><rect fill="#121212" x="402.6" y="343.1" width="390.4" height="24.65" shape-rendering="crispEdges"/><rect fill="#121212" x="793" y="343.1" width="12.2" height="24.65" shape-rendering="crispEdges"/><rect fill="#121212" x="805.2" y="343.1" width="622.2" height="24.65" shape-rendering="crispEdges"/><rect fill="#121212" x="1427.4" y="343.1" width="12.2" height="24.65" shape-rendering="crispEdges"/><rect fill="#121212" x="1439.6" y="343.1" width="12.2" height="24.65" shape-rendering="crispEdges"/><rect fill="#121212" x="1451.8" y="343.1" width="12.2" height="24.65" shape-rendering="crispEdges"/><rect fill="#121212" x="0" y="367.5" width="12.2" height="24.65" shape-rendering="crispEdges"/><rect fill="#121212" x="12.2" y="367.5" width="12.2" height="24.65" shape-rendering="crispEdges"/><rect fill="#121212" x="24.4" y="367.5" width="12.2" height="24.65" shape-rendering="crispEdges"/><rect fill="#121212" x="36.6" y="367.5" width="48.8" height="24.65" shape-rendering="crispEdges"/><rect fill="#121212" x="85.4" y="367.5" width="73.2" height="24.65" shape-rendering="crispEdges"/><rect fill="#121212" x="158.6" y="367.5" width="219.6" height="24.65" shape-rendering="crispEdges"/><rect fill="#121212" x="378.2" y="367.5" width="414.8" height="24.65" shape-rendering="crispEdges"/><rect fill="#121212" x="793" y="367.5" width="12.2" height="24.65" shape-rendering="crispEdges"/><rect fill="#121212" x="805.2" y="367.5" width="622.2" height="24.65" shape-rendering="crispEdges"/><rect fill="#121212" x="1427.4" y="367.5" width="12.2" height="24.65" shape-rendering="crispEdges"/><rect fill="#121212" x="1439.6" y="367.5" width="12.2" height="24.65" shape-rendering="crispEdges"/><rect fill="#121212" x="1451.8" y="367.5" width="12.2" height="24.65" shape-rendering="crispEdges"/><rect fill="#121212" x="0" y="391.9" width="12.2" height="24.65" shape-rendering="crispEdges"/><rect fill="#121212" x="12.2" y="391.9" width="12.2" height="24.65" shape-rendering="crispEdges"/><rect fill="#121212" x="24.4" y="391.9" width="1415.2" height="24.65" shape-rendering="crispEdges"/><rect fill="#121212" x="1439.6" y="391.9" width="12.2" height="24.65" shape-rendering="crispEdges"/><rect fill="#121212" x="1451.8" y="391.9" width="12.2" height="24.65" shape-rendering="crispEdges"/><rect fill="#121212" x="0" y="416.3" width="1464" height="24.65" shape-rendering="crispEdges"/><rect fill="#121212" x="0" y="440.7" width="1464" height="24.65" shape-rendering="crispEdges"/><rect fill="#121212" x="0" y="465.1" width="1464" height="24.65" shape-rendering="crispEdges"/><rect fill="#121212" x="0" y="489.5" width="1464" height="24.65" shape-rendering="crispEdges"/><rect fill="#121212" x="0" y="513.9" width="1464" height="24.65" shape-rendering="crispEdges"/><rect fill="#121212" x="0" y="538.3" width="1464" height="24.65" shape-rendering="crispEdges"/><rect fill="#121212" x="0" y="562.7" width="1464" height="24.65" shape-rendering="crispEdges"/><rect fill="#121212" x="0" y="587.1" width="1464" height="24.65" shape-rendering="crispEdges"/><rect fill="#121212" x="0" y="611.5" width="1464" height="24.65" shape-rendering="crispEdges"/><rect fill="#121212" x="0" y="635.9" width="1464" height="24.65" shape-rendering="crispEdges"/><rect fill="#121212" x="0" y="660.3" width="1464" height="24.65" shape-rendering="crispEdges"/><rect fill="#0d0d0d" x="0" y="684.7" width="1464" height="24.65" shape-rendering="crispEdges"/><rect fill="#0d0d0d" x="0" y="709.1" width="12.2" height="24.65" shape-rendering="crispEdges"/><rect fill="#0d0d0d" x="12.2" y="709.1" width="829.6" height="24.65" shape-rendering="crispEdges"/><rect fill="#0d0d0d" x="841.8" y="709.1" width="585.6" height="24.65" shape-rendering="crispEdges"/><rect fill="#000000" x="1427.4" y="709.1" width="24.4" height="24.65" shape-rendering="crispEdges"/><rect fill="#0d0d0d" x="1451.8" y="709.1" width="12.2" height="24.65" shape-rendering="crispEdges"/><rect fill="#0d0d0d" x="0" y="733.5" width="12.2" height="24.65" shape-rendering="crispEdges"/><rect fill="#0d0d0d" x="12.2" y="733.5" width="158.6" height="24.65" shape-rendering="crispEdges"/><rect fill="#0d0d0d" x="170.8" y="733.5" width="1256.6" height="24.65" shape-rendering="crispEdges"/><rect fill="#000000" x="1427.4" y="733.5" width="24.4" height="24.65" shape-rendering="crispEdges"/><rect fill="#0d0d0d" x="1451.8" y="733.5" width="12.2" height="24.65" shape-rendering="crispEdges"/><rect fill="#0d0d0d" x="0" y="757.9" width="12.2" height="24.65" shape-rendering="crispEdges"/><rect fill="#0d0d0d" x="12.2" y="757.9" width="122" height="24.65" shape-rendering="crispEdges"/><rect fill="#0d0d0d" x="134.2" y="757.9" width="97.6" height="24.65" shape-rendering="crispEdges"/><rect fill="#0d0d0d" x="231.8" y="757.9" width="402.6" height="24.65" shape-rendering="crispEdges"/><rect fill="#0d0d0d" x="634.4" y="757.9" width="793" height="24.65" shape-rendering="crispEdges"/><rect fill="#000000" x="1427.4" y="757.9" width="24.4" height="24.65" shape-rendering="crispEdges"/><rect fill="#0d0d0d" x="1451.8" y="757.9" width="12.2" height="24.65" shape-rendering="crispEdges"/><rect fill="#0d0d0d" x="0" y="782.3" width="12.2" height="24.65" shape-rendering="crispEdges"/><rect fill="#0d0d0d" x="12.2" y="782.3" width="122" height="24.65" shape-rendering="crispEdges"/><rect fill="#0d0d0d" x="134.2" y="782.3" width="48.8" height="24.65" shape-rendering="crispEdges"/><rect fill="#0d0d0d" x="183" y="782.3" width="256.2" height="24.65" shape-rendering="crispEdges"/><rect fill="#0d0d0d" x="439.2" y="782.3" width="988.2" height="24.65" shape-rendering="crispEdges"/><rect fill="#000000" x="1427.4" y="782.3" width="24.4" height="24.65" shape-rendering="crispEdges"/><rect fill="#0d0d0d" x="1451.8" y="782.3" width="12.2" height="24.65" shape-rendering="crispEdges"/><rect fill="#0d0d0d" x="0" y="806.7" width="12.2" height="24.65" shape-rendering="crispEdges"/><rect fill="#0d0d0d" x="12.2" y="806.7" width="122" height="24.65" shape-rendering="crispEdges"/><rect fill="#0d0d0d" x="134.2" y="806.7" width="48.8" height="24.65" shape-rendering="crispEdges"/><rect fill="#0d0d0d" x="183" y="806.7" width="451.4" height="24.65" shape-rendering="crispEdges"/><rect fill="#0d0d0d" x="634.4" y="806.7" width="793" height="24.65" shape-rendering="crispEdges"/><rect fill="#000000" x="1427.4" y="806.7" width="24.4" height="24.65" shape-rendering="crispEdges"/><rect fill="#0d0d0d" x="1451.8" y="806.7" width="12.2" height="24.65" shape-rendering="crispEdges"/><rect fill="#0d0d0d" x="0" y="831.1" width="12.2" height="24.65" shape-rendering="crispEdges"/><rect fill="#0d0d0d" x="12.2" y="831.1" width="122" height="24.65" shape-rendering="crispEdges"/><rect fill="#0d0d0d" x="134.2" y="831.1" width="48.8" height="24.65" shape-rendering="crispEdges"/><rect fill="#0d0d0d" x="183" y="831.1" width="646.6" height="24.65" shape-rendering="crispEdges"/><rect fill="#0d0d0d" x="829.6" y="831.1" width="597.8" height="24.65" shape-rendering="crispEdges"/><rect fill="#000000" x="1427.4" y="831.1" width="24.4" height="24.65" shape-rendering="crispEdges"/><rect fill="#0d0d0d" x="1451.8" y="831.1" width="12.2" height="24.65" shape-rendering="crispEdges"/><rect fill="#0d0d0d" x="0" y="855.5" width="12.2" height="24.65" shape-rendering="crispEdges"/><rect fill="#0d0d0d" x="12.2" y="855.5" width="1415.2" height="24.65" shape-rendering="crispEdges"/><rect fill="#000000" x="1427.4" y="855.5" width="24.4" height="24.65" shape-rendering="crispEdges"/><rect fill="#0d0d0d" x="1451.8" y="855.5" width="12.2" height="24.65" shape-rendering="crispEdges"/><rect fill="#0d0d0d" x="0" y="879.9" width="12.2" height="24.65" shape-rendering="crispEdges"/><rect fill="#0d0d0d" x="12.2" y="879.9" width="1415.2" height="24.65" shape-rendering="crispEdges"/><rect fill="#000000" x="1427.4" y="879.9" width="24.4" height="24.65" shape-rendering="crispEdges"/><rect fill="#0d0d0d" x="1451.8" y="879.9" width="12.2" height="24.65" shape-rendering="crispEdges"/><rect fill="#242f38" x="0" y="904.3" width="36.6" height="24.65" shape-rendering="crispEdges"/><rect fill="#242f38" x="36.6" y="904.3" width="61" height="24.65" shape-rendering="crispEdges"/><rect fill="#242f38" x="97.6" y="904.3" width="36.6" height="24.65" shape-rendering="crispEdges"/><rect fill="#242f38" x="134.2" y="904.3" width="73.2" height="24.65" shape-rendering="crispEdges"/><rect fill="#242f38" x="207.4" y="904.3" width="1110.2" height="24.65" shape-rendering="crispEdges"/><rect fill="#242f38" x="1317.6" y="904.3" width="12.2" height="24.65" shape-rendering="crispEdges"/><rect fill="#242f38" x="1329.8" y="904.3" width="24.4" height="24.65" shape-rendering="crispEdges"/><rect fill="#242f38" x="1354.2" y="904.3" width="97.6" height="24.65" shape-rendering="crispEdges"/><rect fill="#242f38" x="1451.8" y="904.3" width="12.2" height="24.65" shape-rendering="crispEdges"/>
    <g class="terminal-1947340652-matrix">
    <text class="terminal-1947340652-r2" x="12.2" y="20" textLength="12.2" clip-path="url(#terminal-1947340652-line-0)">⭘</text><text class="terminal-1947340652-r2" x="439.2" y="20" textLength="109.8" clip-path="url(#terminal-1947340652-line-0)">theta&#160;top</text><text class="terminal-1947340652-r3" x="549" y="20" textLength="36.6" clip-path="url(#terminal-1947340652-line-0)">&#160;—&#160;</text><text class="terminal-1947340652-r3" x="585.6" y="20" textLength="414.8" clip-path="url(#terminal-1947340652-line-0)">GPU&#160;thermal-power&#160;forensics&#160;—&#160;live</text><text class="terminal-1947340652-r4" x="1354.2" y="20" textLength="97.6" clip-path="url(#terminal-1947340652-line-0)">00:32:27</text><text class="terminal-1947340652-r1" x="1464" y="20" textLength="12.2" clip-path="url(#terminal-1947340652-line-0)">
</text><text class="terminal-1947340652-r5" x="24.4" y="44.4" textLength="48.8" clip-path="url(#terminal-1947340652-line-1)">LIVE</text><text class="terminal-1947340652-r2" x="73.2" y="44.4" textLength="109.8" clip-path="url(#terminal-1947340652-line-1)">&#160;&#160;source&#160;</text><text class="terminal-1947340652-r6" x="183" y="44.4" textLength="48.8" clip-path="url(#terminal-1947340652-line-1)">fake</text><text class="terminal-1947340652-r2" x="231.8" y="44.4" textLength="378.2" clip-path="url(#terminal-1947340652-line-1)">&#160;&#160;·&#160;&#160;3&#160;GPUs&#160;&#160;·&#160;&#160;worst&#160;junction&#160;</text><text class="terminal-1947340652-r7" x="610" y="44.4" textLength="73.2" clip-path="url(#terminal-1947340652-line-1)">88.0°C</text><text class="terminal-1947340652-r2" x="683.2" y="44.4" textLength="158.6" clip-path="url(#terminal-1947340652-line-1)">&#160;&#160;·&#160;&#160;00:32:27</text><text class="terminal-1947340652-r1" x="1464" y="44.4" textLength="12.2" clip-path="url(#terminal-1947340652-line-1)">
</text><text class="terminal-1947340652-r8" x="12.2" y="68.8" textLength="12.2" clip-path="url(#terminal-1947340652-line-2)">╭</text><text class="terminal-1947340652-r8" x="24.4" y="68.8" textLength="1415.2" clip-path="url(#terminal-1947340652-line-2)">────────────────────────────────────────────────────────────────────────────────────────────────────────────────────</text><text class="terminal-1947340652-r8" x="1439.6" y="68.8" textLength="12.2" clip-path="url(#terminal-1947340652-line-2)">╮</text><text class="terminal-1947340652-r1" x="1464" y="68.8" textLength="12.2" clip-path="url(#terminal-1947340652-line-2)">
</text><text class="terminal-1947340652-r8" x="12.2" y="93.2" textLength="12.2" clip-path="url(#terminal-1947340652-line-3)">│</text><text class="terminal-1947340652-r6" x="36.6" y="93.2" textLength="61" clip-path="url(#terminal-1947340652-line-3)">GPU&#160;0</text><text class="terminal-1947340652-r9" x="109.8" y="93.2" textLength="292.8" clip-path="url(#terminal-1947340652-line-3)">Tesla&#160;T4&#160;&#160;&#160;&#160;&#160;&#160;&#160;&#160;&#160;&#160;&#160;&#160;&#160;&#160;&#160;&#160;</text><text class="terminal-1947340652-r10" x="414.8" y="93.2" textLength="61" clip-path="url(#terminal-1947340652-line-3)">SCHED</text><text class="terminal-1947340652-r8" x="1439.6" y="93.2" textLength="12.2" clip-path="url(#terminal-1947340652-line-3)">│</text><text class="terminal-1947340652-r1" x="1464" y="93.2" textLength="12.2" clip-path="url(#terminal-1947340652-line-3)">
</text><text class="terminal-1947340652-r8" x="12.2" y="117.6" textLength="12.2" clip-path="url(#terminal-1947340652-line-4)">│</text><text class="terminal-1947340652-r10" x="36.6" y="117.6" textLength="85.4" clip-path="url(#terminal-1947340652-line-4)">&#160;61.0°C</text><text class="terminal-1947340652-r2" x="122" y="117.6" textLength="280.6" clip-path="url(#terminal-1947340652-line-4)">&#160;&#160;&#160;&#160;68.0&#160;W&#160;&#160;util&#160;&#160;95.0%</text><text class="terminal-1947340652-r11" x="805.2" y="117.6" textLength="622.2" clip-path="url(#terminal-1947340652-line-4)">███████████████████████████████████████████████████</text><text class="terminal-1947340652-r8" x="1439.6" y="117.6" textLength="12.2" clip-path="url(#terminal-1947340652-line-4)">│</text><text class="terminal-1947340652-r1" x="1464" y="117.6" textLength="12.2" clip-path="url(#terminal-1947340652-line-4)">
</text><text class="terminal-1947340652-r8" x="12.2" y="142" textLength="12.2" clip-path="url(#terminal-1947340652-line-5)">│</text><text class="terminal-1947340652-r2" x="36.6" y="142" textLength="48.8" clip-path="url(#terminal-1947340652-line-5)">R_θ&#160;</text><text class="terminal-1947340652-r6" x="85.4" y="142" textLength="73.2" clip-path="url(#terminal-1947340652-line-5)">0.5300</text><text class="terminal-1947340652-r2" x="158.6" y="142" textLength="219.6" clip-path="url(#terminal-1947340652-line-5)">&#160;C/W&#160;&#160;&#160;drift&#160;+0.2σ</text><text class="terminal-1947340652-r11" x="805.2" y="142" textLength="622.2" clip-path="url(#terminal-1947340652-line-5)">███████████████████████████████████████████████████</text><text class="terminal-1947340652-r8" x="1439.6" y="142" textLength="12.2" clip-path="url(#terminal-1947340652-line-5)">│</text><text class="terminal-1947340652-r1" x="1464" y="142" textLength="12.2" clip-path="url(#terminal-1947340652-line-5)">
</text><text class="terminal-1947340652-r8" x="12.2" y="166.4" textLength="12.2" clip-path="url(#terminal-1947340652-line-6)">╰</text><text class="terminal-1947340652-r8" x="24.4" y="166.4" textLength="1415.2" clip-path="url(#terminal-1947340652-line-6)">────────────────────────────────────────────────────────────────────────────────────────────────────────────────────</text><text class="terminal-1947340652-r8" x="1439.6" y="166.4" textLength="12.2" clip-path="url(#terminal-1947340652-line-6)">╯</text><text class="terminal-1947340652-r1" x="1464" y="166.4" textLength="12.2" clip-path="url(#terminal-1947340652-line-6)">
</text><text class="terminal-1947340652-r8" x="12.2" y="190.8" textLength="12.2" clip-path="url(#terminal-1947340652-line-7)">╭</text><text class="terminal-1947340652-r8" x="24.4" y="190.8" textLength="1415.2" clip-path="url(#terminal-1947340652-line-7)">────────────────────────────────────────────────────────────────────────────────────────────────────────────────────</text><text class="terminal-1947340652-r8" x="1439.6" y="190.8" textLength="12.2" clip-path="url(#terminal-1947340652-line-7)">╮</text><text class="terminal-1947340652-r1" x="1464" y="190.8" textLength="12.2" clip-path="url(#terminal-1947340652-line-7)">
</text><text class="terminal-1947340652-r8" x="12.2" y="215.2" textLength="12.2" clip-path="url(#terminal-1947340652-line-8)">│</text><text class="terminal-1947340652-r6" x="36.6" y="215.2" textLength="61" clip-path="url(#terminal-1947340652-line-8)">GPU&#160;1</text><text class="terminal-1947340652-r9" x="109.8" y="215.2" textLength="292.8" clip-path="url(#terminal-1947340652-line-8)">Tesla&#160;T4&#160;&#160;&#160;&#160;&#160;&#160;&#160;&#160;&#160;&#160;&#160;&#160;&#160;&#160;&#160;&#160;</text><text class="terminal-1947340652-r10" x="414.8" y="215.2" textLength="61" clip-path="url(#terminal-1947340652-line-8)">SCHED</text><text class="terminal-1947340652-r8" x="1439.6" y="215.2" textLength="12.2" clip-path="url(#terminal-1947340652-line-8)">│</text><text class="terminal-1947340652-r1" x="1464" y="215.2" textLength="12.2" clip-path="url(#terminal-1947340652-line-8)">
</text><text class="terminal-1947340652-r8" x="12.2" y="239.6" textLength="12.2" clip-path="url(#terminal-1947340652-line-9)">│</text><text class="terminal-1947340652-r10" x="36.6" y="239.6" textLength="85.4" clip-path="url(#terminal-1947340652-line-9)">&#160;63.0°C</text><text class="terminal-1947340652-r2" x="122" y="239.6" textLength="280.6" clip-path="url(#terminal-1947340652-line-9)">&#160;&#160;&#160;&#160;69.0&#160;W&#160;&#160;util&#160;&#160;94.0%</text><text class="terminal-1947340652-r11" x="805.2" y="239.6" textLength="622.2" clip-path="url(#terminal-1947340652-line-9)">███████████████████████████████████████████████████</text><text class="terminal-1947340652-r8" x="1439.6" y="239.6" textLength="12.2" clip-path="url(#terminal-1947340652-line-9)">│</text><text class="terminal-1947340652-r1" x="1464" y="239.6" textLength="12.2" clip-path="url(#terminal-1947340652-line-9)">
</text><text class="terminal-1947340652-r8" x="12.2" y="264" textLength="12.2" clip-path="url(#terminal-1947340652-line-10)">│</text><text class="terminal-1947340652-r2" x="36.6" y="264" textLength="48.8" clip-path="url(#terminal-1947340652-line-10)">R_θ&#160;</text><text class="terminal-1947340652-r6" x="85.4" y="264" textLength="73.2" clip-path="url(#terminal-1947340652-line-10)">0.5500</text><text class="terminal-1947340652-r2" x="158.6" y="264" textLength="219.6" clip-path="url(#terminal-1947340652-line-10)">&#160;C/W&#160;&#160;&#160;drift&#160;+0.4σ</text><text class="terminal-1947340652-r11" x="805.2" y="264" textLength="622.2" clip-path="url(#terminal-1947340652-line-10)">███████████████████████████████████████████████████</text><text class="terminal-1947340652-r8" x="1439.6" y="264" textLength="12.2" clip-path="url(#terminal-1947340652-line-10)">│</text><text class="terminal-1947340652-r1" x="1464" y="264" textLength="12.2" clip-path="url(#terminal-1947340652-line-10)">
</text><text class="terminal-1947340652-r8" x="12.2" y="288.4" textLength="12.2" clip-path="url(#terminal-1947340652-line-11)">╰</text><text class="terminal-1947340652-r8" x="24.4" y="288.4" textLength="1415.2" clip-path="url(#terminal-1947340652-line-11)">────────────────────────────────────────────────────────────────────────────────────────────────────────────────────</text><text class="terminal-1947340652-r8" x="1439.6" y="288.4" textLength="12.2" clip-path="url(#terminal-1947340652-line-11)">╯</text><text class="terminal-1947340652-r1" x="1464" y="288.4" textLength="12.2" clip-path="url(#terminal-1947340652-line-11)">
</text><text class="terminal-1947340652-r7" x="12.2" y="312.8" textLength="12.2" clip-path="url(#terminal-1947340652-line-12)">╭</text><text class="terminal-1947340652-r7" x="24.4" y="312.8" textLength="1415.2" clip-path="url(#terminal-1947340652-line-12)">────────────────────────────────────────────────────────────────────────────────────────────────────────────────────</text><text class="terminal-1947340652-r7" x="1439.6" y="312.8" textLength="12.2" clip-path="url(#terminal-1947340652-line-12)">╮</text><text class="terminal-1947340652-r1" x="1464" y="312.8" textLength="12.2" clip-path="url(#terminal-1947340652-line-12)">
</text><text class="terminal-1947340652-r7" x="12.2" y="337.2" textLength="12.2" clip-path="url(#terminal-1947340652-line-13)">│</text><text class="terminal-1947340652-r6" x="36.6" y="337.2" textLength="61" clip-path="url(#terminal-1947340652-line-13)">GPU&#160;2</text><text class="terminal-1947340652-r9" x="109.8" y="337.2" textLength="292.8" clip-path="url(#terminal-1947340652-line-13)">Tesla&#160;T4&#160;&#160;&#160;&#160;&#160;&#160;&#160;&#160;&#160;&#160;&#160;&#160;&#160;&#160;&#160;&#160;</text><text class="terminal-1947340652-r7" x="414.8" y="337.2" textLength="61" clip-path="url(#terminal-1947340652-line-13)">DRAIN</text><text class="terminal-1947340652-r7" x="1439.6" y="337.2" textLength="12.2" clip-path="url(#terminal-1947340652-line-13)">│</text><text class="terminal-1947340652-r1" x="1464" y="337.2" textLength="12.2" clip-path="url(#terminal-1947340652-line-13)">
</text><text class="terminal-1947340652-r7" x="12.2" y="361.6" textLength="12.2" clip-path="url(#terminal-1947340652-line-14)">│</text><text class="terminal-1947340652-r7" x="36.6" y="361.6" textLength="85.4" clip-path="url(#terminal-1947340652-line-14)">&#160;88.0°C</text><text class="terminal-1947340652-r2" x="122" y="361.6" textLength="280.6" clip-path="url(#terminal-1947340652-line-14)">&#160;&#160;&#160;&#160;68.5&#160;W&#160;&#160;util&#160;&#160;96.0%</text><text class="terminal-1947340652-r7" x="805.2" y="361.6" textLength="622.2" clip-path="url(#terminal-1947340652-line-14)">███████████████████████████████████████████████████</text><text class="terminal-1947340652-r7" x="1439.6" y="361.6" textLength="12.2" clip-path="url(#terminal-1947340652-line-14)">│</text><text class="terminal-1947340652-r1" x="1464" y="361.6" textLength="12.2" clip-path="url(#terminal-1947340652-line-14)">
</text><text class="terminal-1947340652-r7" x="12.2" y="386" textLength="12.2" clip-path="url(#terminal-1947340652-line-15)">│</text><text class="terminal-1947340652-r2" x="36.6" y="386" textLength="48.8" clip-path="url(#terminal-1947340652-line-15)">R_θ&#160;</text><text class="terminal-1947340652-r6" x="85.4" y="386" textLength="73.2" clip-path="url(#terminal-1947340652-line-15)">0.9200</text><text class="terminal-1947340652-r2" x="158.6" y="386" textLength="219.6" clip-path="url(#terminal-1947340652-line-15)">&#160;C/W&#160;&#160;&#160;drift&#160;+4.2σ</text><text class="terminal-1947340652-r7" x="805.2" y="386" textLength="622.2" clip-path="url(#terminal-1947340652-line-15)">███████████████████████████████████████████████████</text><text class="terminal-1947340652-r7" x="1439.6" y="386" textLength="12.2" clip-path="url(#terminal-1947340652-line-15)">│</text><text class="terminal-1947340652-r1" x="1464" y="386" textLength="12.2" clip-path="url(#terminal-1947340652-line-15)">
</text><text class="terminal-1947340652-r7" x="12.2" y="410.4" textLength="12.2" clip-path="url(#terminal-1947340652-line-16)">╰</text><text class="terminal-1947340652-r7" x="24.4" y="410.4" textLength="1415.2" clip-path="url(#terminal-1947340652-line-16)">────────────────────────────────────────────────────────────────────────────────────────────────────────────────────</text><text class="terminal-1947340652-r7" x="1439.6" y="410.4" textLength="12.2" clip-path="url(#terminal-1947340652-line-16)">╯</text><text class="terminal-1947340652-r1" x="1464" y="410.4" textLength="12.2" clip-path="url(#terminal-1947340652-line-16)">
</text><text class="terminal-1947340652-r1" x="1464" y="434.8" textLength="12.2" clip-path="url(#terminal-1947340652-line-17)">
</text><text class="terminal-1947340652-r1" x="1464" y="459.2" textLength="12.2" clip-path="url(#terminal-1947340652-line-18)">
</text><text class="terminal-1947340652-r1" x="1464" y="483.6" textLength="12.2" clip-path="url(#terminal-1947340652-line-19)">
</text><text class="terminal-1947340652-r1" x="1464" y="508" textLength="12.2" clip-path="url(#terminal-1947340652-line-20)">
</text><text class="terminal-1947340652-r1" x="1464" y="532.4" textLength="12.2" clip-path="url(#terminal-1947340652-line-21)">
</text><text class="terminal-1947340652-r1" x="1464" y="556.8" textLength="12.2" clip-path="url(#terminal-1947340652-line-22)">
</text><text class="terminal-1947340652-r1" x="1464" y="581.2" textLength="12.2" clip-path="url(#terminal-1947340652-line-23)">
</text><text class="terminal-1947340652-r1" x="1464" y="605.6" textLength="12.2" clip-path="url(#terminal-1947340652-line-24)">
</text><text class="terminal-1947340652-r1" x="1464" y="630" textLength="12.2" clip-path="url(#terminal-1947340652-line-25)">
</text><text class="terminal-1947340652-r1" x="1464" y="654.4" textLength="12.2" clip-path="url(#terminal-1947340652-line-26)">
</text><text class="terminal-1947340652-r1" x="1464" y="678.8" textLength="12.2" clip-path="url(#terminal-1947340652-line-27)">
</text><text class="terminal-1947340652-r8" x="0" y="703.2" textLength="1464" clip-path="url(#terminal-1947340652-line-28)">━━━━━━━━━━━━━━━━━━━━━━━━━━━━━━━━━━━━━━━━━━━━━━━━━━━━━━━━━━━━━━━━━━━━━━━━━━━━━━━━━━━━━━━━━━━━━━━━━━━━━━━━━━━━━━━━━━━━━━━━</text><text class="terminal-1947340652-r1" x="1464" y="703.2" textLength="12.2" clip-path="url(#terminal-1947340652-line-28)">
</text><text class="terminal-1947340652-r12" x="12.2" y="727.6" textLength="829.6" clip-path="url(#terminal-1947340652-line-29)">alert&#160;feed&#160;—&#160;display-level&#160;triage;&#160;the&#160;agent&#x27;s&#160;detector&#160;pipeline&#160;is&#160;</text><text class="terminal-1947340652-r1" x="1464" y="727.6" textLength="12.2" clip-path="url(#terminal-1947340652-line-29)">
</text><text class="terminal-1947340652-r12" x="12.2" y="752" textLength="158.6" clip-path="url(#terminal-1947340652-line-30)">authoritative</text><text class="terminal-1947340652-r1" x="1464" y="752" textLength="12.2" clip-path="url(#terminal-1947340652-line-30)">
</text><text class="terminal-1947340652-r2" x="12.2" y="776.4" textLength="122" clip-path="url(#terminal-1947340652-line-31)">00:32:27&#160;&#160;</text><text class="terminal-1947340652-r13" x="134.2" y="776.4" textLength="97.6" clip-path="url(#terminal-1947340652-line-31)">CRITICAL</text><text class="terminal-1947340652-r2" x="231.8" y="776.4" textLength="402.6" clip-path="url(#terminal-1947340652-line-31)">&#160;GPU&#160;2:&#160;marked&#160;unfit&#160;for&#160;new&#160;work</text><text class="terminal-1947340652-r1" x="1464" y="776.4" textLength="12.2" clip-path="url(#terminal-1947340652-line-31)">
</text><text class="terminal-1947340652-r2" x="12.2" y="800.8" textLength="122" clip-path="url(#terminal-1947340652-line-32)">00:32:27&#160;&#160;</text><text class="terminal-1947340652-r14" x="134.2" y="800.8" textLength="48.8" clip-path="url(#terminal-1947340652-line-32)">WARN</text><text class="terminal-1947340652-r2" x="183" y="800.8" textLength="256.2" clip-path="url(#terminal-1947340652-line-32)">&#160;GPU&#160;2:&#160;junction&#160;88°C</text><text class="terminal-1947340652-r1" x="1464" y="800.8" textLength="12.2" clip-path="url(#terminal-1947340652-line-32)">
</text><text class="terminal-1947340652-r2" x="12.2" y="825.2" textLength="122" clip-path="url(#terminal-1947340652-line-33)">00:32:27&#160;&#160;</text><text class="terminal-1947340652-r14" x="134.2" y="825.2" textLength="48.8" clip-path="url(#terminal-1947340652-line-33)">WARN</text><text class="terminal-1947340652-r2" x="183" y="825.2" textLength="451.4" clip-path="url(#terminal-1947340652-line-33)">&#160;GPU&#160;2:&#160;R_θ&#160;drift&#160;+4.2σ&#160;from&#160;baseline</text><text class="terminal-1947340652-r1" x="1464" y="825.2" textLength="12.2" clip-path="url(#terminal-1947340652-line-33)">
</text><text class="terminal-1947340652-r2" x="12.2" y="849.6" textLength="122" clip-path="url(#terminal-1947340652-line-34)">00:32:27&#160;&#160;</text><text class="terminal-1947340652-r14" x="134.2" y="849.6" textLength="48.8" clip-path="url(#terminal-1947340652-line-34)">WARN</text><text class="terminal-1947340652-r2" x="183" y="849.6" textLength="646.6" clip-path="url(#terminal-1947340652-line-34)">&#160;GPU&#160;2:&#160;micro-throttle,&#160;SM&#160;at&#160;78%&#160;of&#160;boost&#160;under&#160;load</text><text class="terminal-1947340652-r1" x="1464" y="849.6" textLength="12.2" clip-path="url(#terminal-1947340652-line-34)">
</text><text class="terminal-1947340652-r1" x="1464" y="874" textLength="12.2" clip-path="url(#terminal-1947340652-line-35)">
</text><text class="terminal-1947340652-r1" x="1464" y="898.4" textLength="12.2" clip-path="url(#terminal-1947340652-line-36)">
</text><text class="terminal-1947340652-r15" x="0" y="922.8" textLength="36.6" clip-path="url(#terminal-1947340652-line-37)">&#160;q&#160;</text><text class="terminal-1947340652-r2" x="36.6" y="922.8" textLength="61" clip-path="url(#terminal-1947340652-line-37)">Quit&#160;</text><text class="terminal-1947340652-r15" x="97.6" y="922.8" textLength="36.6" clip-path="url(#terminal-1947340652-line-37)">&#160;p&#160;</text><text class="terminal-1947340652-r2" x="134.2" y="922.8" textLength="73.2" clip-path="url(#terminal-1947340652-line-37)">Pause&#160;</text><text class="terminal-1947340652-r16" x="1317.6" y="922.8" textLength="12.2" clip-path="url(#terminal-1947340652-line-37)">▏</text><text class="terminal-1947340652-r15" x="1329.8" y="922.8" textLength="24.4" clip-path="url(#terminal-1947340652-line-37)">^p</text><text class="terminal-1947340652-r2" x="1354.2" y="922.8" textLength="97.6" clip-path="url(#terminal-1947340652-line-37)">&#160;palette</text>
    </g>
    </g>
</svg>
